<svg width="65" height="59" viewBox="0 0 65 59" fill="none" xmlns="http://www.w3.org/2000/svg">
<path d="M34.5 32C33.6716 32 33 32.6716 33 33.5C33 34.3284 33.6716 35 34.5 35V33.5V32ZM53.5607 34.5607C54.1464 33.9749 54.1464 33.0251 53.5607 32.4393L44.0147 22.8934C43.4289 22.3076 42.4792 22.3076 41.8934 22.8934C41.3076 23.4792 41.3076 24.4289 41.8934 25.0147L50.3787 33.5L41.8934 41.9853C41.3076 42.5711 41.3076 43.5208 41.8934 44.1066C42.4792 44.6924 43.4289 44.6924 44.0147 44.1066L53.5607 34.5607ZM34.5 33.5V35L52.5 35V33.5V32L34.5 32V33.5Z" fill="black"/>
<path d="M30 27C30.8284 27 31.5 26.3284 31.5 25.5C31.5 24.6716 30.8284 24 30 24V25.5V27ZM11.4393 24.4393C10.8536 25.0251 10.8536 25.9749 11.4393 26.5607L20.9853 36.1066C21.5711 36.6924 22.5208 36.6924 23.1066 36.1066C23.6924 35.5208 23.6924 34.5711 23.1066 33.9853L14.6213 25.5L23.1066 17.0147C23.6924 16.4289 23.6924 15.4792 23.1066 14.8934C22.5208 14.3076 21.5711 14.3076 20.9853 14.8934L11.4393 24.4393ZM30 25.5V24H12.5V25.5V27H30V25.5Z" fill="black"/>
<path d="M29.5 48C30.3284 48 31 47.3284 31 46.5C31 45.6716 30.3284 45 29.5 45V46.5V48ZM42 8V9.5H45V8H43.5H42ZM29.5 46.5V45H7.5V46.5V48H29.5V46.5ZM7.5 1.5V3H37.5V1.5V0H7.5V1.5ZM43.5 7.5H42V8H43.5H45V7.5H43.5ZM1.5 40.5H3V24H1.5H0V40.5H1.5ZM1.5 24H3V7.5H1.5H0V24H1.5ZM37.5 1.5V3C39.9853 3 42 5.01472 42 7.5H43.5H45C45 3.35786 41.6421 0 37.5 0V1.5ZM7.5 1.5V0C3.35786 0 0 3.35786 0 7.5H1.5H3C3 5.01472 5.01472 3 7.5 3V1.5ZM7.5 46.5V45C5.01472 45 3 42.9853 3 40.5H1.5H0C0 44.6421 3.35787 48 7.5 48V46.5Z" fill="black"/>
<path d="M31.7439 11C30.9155 11 30.2439 11.6716 30.2439 12.5C30.2439 13.3284 30.9155 14 31.7439 14V12.5V11ZM23 51V49.5L20 49.5V51H21.5H23ZM27.5 57.5V59V57.5ZM57.5 57.5V56V57.5ZM31.7439 12.5V14L57.5 14V12.5V11L31.7439 11V12.5ZM57.5 57.5V56H27.5V57.5V59H57.5V57.5ZM21.5 51.5H23V51H21.5H20V51.5H21.5ZM63.5 18.5H62V35H63.5H65L65 18.5H63.5ZM63.5 35H62L62 51.5H63.5H65V35H63.5ZM27.5 57.5V56C25.0147 56 23 53.9853 23 51.5H21.5H20C20 55.6421 23.3579 59 27.5 59V57.5ZM57.5 57.5V59C61.6421 59 65 55.6421 65 51.5H63.5H62C62 53.9853 59.9853 56 57.5 56V57.5ZM57.5 12.5V14C59.9853 14 62 16.0147 62 18.5H63.5H65C65 14.3579 61.6421 11 57.5 11V12.5Z" fill="black"/>
</svg>
